<?xml version="1.0" encoding="UTF-8" standalone="no"?>
<!-- Created with Inkscape (http://www.inkscape.org/) -->

<svg
   xmlns:dc="http://purl.org/dc/elements/1.1/"
   xmlns:cc="http://creativecommons.org/ns#"
   xmlns:rdf="http://www.w3.org/1999/02/22-rdf-syntax-ns#"
   xmlns:svg="http://www.w3.org/2000/svg"
   xmlns="http://www.w3.org/2000/svg"
   xmlns:sodipodi="http://sodipodi.sourceforge.net/DTD/sodipodi-0.dtd"
   xmlns:inkscape="http://www.inkscape.org/namespaces/inkscape"
   width="320"
   height="108"
   viewBox="0 0 84.666665 28.575001"
   version="1.1"
   id="svg3907"
   inkscape:version="0.92.4 (5da689c313, 2019-01-14)"
   sodipodi:docname="logo-PECA2.svg">
  <defs
     id="defs3901" />
  <sodipodi:namedview
     id="base"
     pagecolor="#ffffff"
     bordercolor="#666666"
     borderopacity="1.0"
     inkscape:pageopacity="0.0"
     inkscape:pageshadow="2"
     inkscape:zoom="2.8"
     inkscape:cx="91.303295"
     inkscape:cy="111.05429"
     inkscape:document-units="mm"
     inkscape:current-layer="layer1"
     showgrid="false"
     inkscape:window-width="1920"
     inkscape:window-height="1017"
     inkscape:window-x="-8"
     inkscape:window-y="-8"
     inkscape:window-maximized="1"
     units="px" />
  <metadata
     id="metadata3904">
    <rdf:RDF>
      <cc:Work
         rdf:about="">
        <dc:format>image/svg+xml</dc:format>
        <dc:type
           rdf:resource="http://purl.org/dc/dcmitype/StillImage" />
        <dc:title></dc:title>
      </cc:Work>
    </rdf:RDF>
  </metadata>
  <g
     inkscape:label="Calque 1"
     inkscape:groupmode="layer"
     id="layer1"
     transform="translate(0,-268.42497)">
    <g
       id="g3969"
       transform="translate(-42.255746,180.73635)">
      <path
         inkscape:connector-curvature="0"
         id="path3753"
         style="fill:#009d89;fill-opacity:1;fill-rule:nonzero;stroke:none;stroke-width:0.35277778"
         d="m 42.488433,114.99332 h 6.933494 V 88.029809 h -6.933494 z" />
      <path
         inkscape:connector-curvature="0"
         id="path3755"
         style="fill:#ab498a;fill-opacity:1;fill-rule:nonzero;stroke:none;stroke-width:0.35277778"
         d="m 63.416974,114.99332 h 6.933142 V 88.029809 h -6.933142 z" />
      <g
         transform="matrix(0.35277777,0,0,-0.35277777,74.298652,88.030019)"
         id="g3757">
        <path
           inkscape:connector-curvature="0"
           id="path3759"
           style="fill:#0085bd;fill-opacity:1;fill-rule:nonzero;stroke:none"
           d="M 0,0 24.022,-24.022 V 0 Z" />
      </g>
      <g
         transform="matrix(0.35277777,0,0,-0.35277777,82.772907,106.46146)"
         id="g3761">
        <path
           inkscape:connector-curvature="0"
           id="path3763"
           style="fill:#ee7f00;fill-opacity:1;fill-rule:nonzero;stroke:none"
           d="M 0,0 V -24.021 H -24.021 Z" />
      </g>
      <g
         transform="matrix(0.35277777,0,0,-0.35277777,51.45061,105.96708)"
         id="g3773">
        <path
           inkscape:connector-curvature="0"
           id="path3775"
           style="fill:#ee7f00;fill-opacity:1;fill-rule:nonzero;stroke:none"
           d="M 0,0 C 14.04,0 25.423,11.382 25.423,25.423 25.423,39.463 14.04,50.845 0,50.845 Z" />
      </g>
      <g
         transform="matrix(0.35277777,0,0,-0.35277777,76.224784,105.96073)"
         id="g3777">
        <path
           inkscape:connector-curvature="0"
           id="path3779"
           style="fill:#162983;fill-opacity:1;fill-rule:nonzero;stroke:none"
           d="m 0,0 c 6.03,0 10.919,4.888 10.919,10.919 0,6.03 -4.889,10.918 -10.919,10.918 -6.03,0 -10.919,-4.888 -10.919,-10.918 C -10.919,4.888 -6.03,0 0,0" />
      </g>
      <g
         transform="matrix(0.35277777,0,0,-0.35277777,107.79736,116.05261)"
         id="g3781">
        <path
           inkscape:connector-curvature="0"
           id="path3783"
           style="fill:#8bb110;fill-opacity:1;fill-rule:nonzero;stroke:none"
           d="m 0,0 c 6.03,0 10.919,4.888 10.919,10.919 0,6.03 -4.889,10.918 -10.919,10.918 -6.029,0 -10.919,-4.888 -10.919,-10.918 C -10.919,4.888 -6.029,0 0,0" />
      </g>
      <g
         transform="matrix(0.35277777,0,0,-0.35277777,112.2078,96.350284)"
         id="g3785">
        <path
           inkscape:connector-curvature="0"
           id="path3787"
           style="fill:#009d89;fill-opacity:1;fill-rule:nonzero;stroke:none"
           d="M 0,0 21.839,-54.266 H 41.491 L 10.92,22.165 Z" />
      </g>
      <g
         transform="matrix(0.35277777,0,0,-0.35277777,94.739448,101.73308)"
         id="g3789">
        <path
           inkscape:connector-curvature="0"
           id="path3791"
           style="fill:#e53457;fill-opacity:1;fill-rule:nonzero;stroke:none"
           d="M 0,0 C 0,9.407 7.499,17.045 16.843,17.308 V 39.28 c -21.695,0 -39.28,-17.587 -39.28,-39.28 0,-21.694 17.585,-39.281 39.28,-39.281 V -17.31 C 7.499,-17.047 0,-9.408 0,0" />
      </g>
    </g>
  </g>
</svg>
