<svg version="1.1" id="Layer_1" xmlns="http://www.w3.org/2000/svg" xmlns:xlink="http://www.w3.org/1999/xlink" x="0px" y="0px"
	 width="100%" viewBox="0 0 512 512" enable-background="new 0 0 512 512" xml:space="preserve">
<path fill="none" opacity="1.000000" stroke="none" 
	d="
M1.000001,308.000000 
	C1.000000,205.709335 1.000000,103.418678 1.000000,1.064009 
	C171.552811,1.064009 342.105652,1.064009 513.000000,1.064009 
	C513.000000,75.021660 513.000000,149.043854 512.779663,223.875061 
	C507.048828,217.737106 499.691284,216.660172 491.274170,216.856995 
	C471.956512,217.308624 452.621063,217.015991 433.292877,216.994339 
	C420.466339,216.979980 407.130310,219.093002 394.957855,216.249252 
	C382.976410,213.450134 372.207581,205.533722 360.848785,199.981049 
	C337.281311,188.460236 313.675537,177.017838 289.583832,165.299179 
	C291.155304,163.099030 292.571259,161.147461 293.955536,159.173645 
	C305.416626,142.831497 316.929932,126.525497 328.306488,110.124664 
	C334.808258,100.751495 333.016388,92.398392 326.571350,87.528946 
	C310.526459,75.406532 293.775452,64.212646 277.209167,52.789192 
	C269.536743,47.498585 259.389557,49.166553 254.298401,56.365158 
	C248.350632,64.774986 242.537292,73.279846 236.656479,81.737129 
	C226.008194,97.050621 215.366776,112.368950 204.687866,127.661072 
	C202.848160,130.295486 200.986618,131.324188 197.259506,129.906189 
	C185.820862,125.554306 174.266479,125.511688 162.801193,130.571426 
	C149.198654,136.574341 135.507126,142.383560 121.762047,148.053421 
	C106.476311,154.358826 93.002083,162.321457 83.959503,177.258469 
	C65.755844,207.328262 46.513313,236.767838 27.818722,266.542328 
	C19.227674,280.225128 10.923591,294.088013 2.438720,307.838013 
	C2.282320,308.091431 1.493660,307.954712 1.000001,308.000000 
z"/>
<path id="vert" fill="#8BB31D" opacity="1.000000" stroke="none" 
	d="
M1.000001,308.468689 
	C1.493660,307.954712 2.282320,308.091431 2.438720,307.838013 
	C10.923591,294.088013 19.227674,280.225128 27.818722,266.542328 
	C46.513313,236.767838 65.755844,207.328262 83.959503,177.258469 
	C93.002083,162.321457 106.476311,154.358826 121.762047,148.053421 
	C135.507126,142.383560 149.198654,136.574341 162.801193,130.571426 
	C174.266479,125.511688 185.820862,125.554306 197.259506,129.906189 
	C200.986618,131.324188 202.848160,130.295486 204.687866,127.661072 
	C215.366776,112.368950 226.008194,97.050621 236.656479,81.737129 
	C242.537292,73.279846 248.350632,64.774986 254.298401,56.365158 
	C259.389557,49.166553 269.536743,47.498585 277.209167,52.789192 
	C293.775452,64.212646 310.526459,75.406532 326.571350,87.528946 
	C333.016388,92.398392 334.808258,100.751495 328.306488,110.124664 
	C316.929932,126.525497 305.416626,142.831497 293.955536,159.173645 
	C292.571259,161.147461 291.155304,163.099030 289.583832,165.299179 
	C313.675537,177.017838 337.281311,188.460236 360.848785,199.981049 
	C372.207581,205.533722 382.976410,213.450134 394.957855,216.249252 
	C407.130310,219.093002 420.466339,216.979980 433.292877,216.994339 
	C452.621063,217.015991 471.956512,217.308624 491.274170,216.856995 
	C499.691284,216.660172 507.048828,217.737106 512.779663,224.342041 
	C513.000000,289.020905 513.000000,354.041779 512.768311,419.189697 
	C509.996429,421.549042 507.782532,424.420166 504.863647,425.910828 
	C484.831512,436.141052 464.634949,446.048676 444.528168,456.133606 
	C436.970795,459.924164 428.088348,456.233215 425.019470,450.383575 
	C423.929016,448.305115 423.124542,445.809296 423.088226,443.489929 
	C422.899170,431.429504 423.000153,419.364532 423.000153,406.952820 
	C362.047150,434.456818 301.678894,434.673950 242.224365,407.974823 
	C240.847122,414.888123 240.094940,421.941772 237.994675,428.568146 
	C232.535049,445.793182 212.751648,459.319641 195.051468,457.867493 
	C185.757080,457.104950 176.657288,455.049683 169.025452,448.804199 
	C167.777527,447.782928 164.393723,447.718994 163.080872,448.685211 
	C149.857056,458.417664 135.456696,459.898376 120.302490,454.886200 
	C109.832573,451.423370 102.022820,444.225861 96.173813,434.898010 
	C93.537880,436.251160 91.192406,437.409576 88.888405,438.645325 
	C72.432579,447.471497 56.097790,456.536743 39.429485,464.940796 
	C36.491337,466.422150 31.822641,466.137543 28.554909,464.975800 
	C19.928246,461.908752 17.192154,454.506744 19.032772,443.163330 
	C21.496178,427.981812 23.628675,412.746857 26.025131,397.554077 
	C27.716394,386.832001 27.619375,375.449524 36.945549,367.650574 
	C36.329845,366.974121 36.145615,366.573303 35.875908,366.503693 
	C20.207352,362.460236 9.088292,353.288757 3.356338,337.914398 
	C3.051621,337.097046 1.807047,336.630066 1.000001,336.000000 
	C1.000000,326.979095 1.000000,317.958221 1.000001,308.468689 
M422.774658,371.607239 
	C422.848877,370.780670 422.987762,369.954163 422.988007,369.127563 
	C422.998993,329.971771 423.000824,290.816010 422.983826,251.660217 
	C422.983337,250.552094 422.767273,249.444077 422.616730,248.000000 
	C415.537323,248.000000 408.689758,247.507629 401.941467,248.116165 
	C391.981781,249.014297 383.136108,246.056595 374.487701,241.799530 
	C356.522980,232.956650 338.571960,224.086029 320.606750,215.244217 
	C304.192535,207.165741 287.767059,199.110153 271.427490,191.084198 
	C251.347580,219.781296 231.608963,247.990646 211.870331,276.199982 
	C212.082214,276.654114 212.294083,277.108246 212.505966,277.562347 
	C220.802917,276.126099 229.198700,275.105865 237.375427,273.163483 
	C252.481522,269.574982 264.474426,260.436829 276.020660,250.548431 
	C283.190216,244.408310 293.383118,245.945541 299.061096,253.602905 
	C303.368225,259.411560 300.999207,271.134888 294.604095,275.762238 
	C293.279846,276.720398 291.937225,277.677673 290.741119,278.784576 
	C278.097504,290.485626 263.166595,298.050293 246.817734,302.987915 
	C232.970154,307.170197 218.683548,307.953430 204.342346,307.982880 
	C176.016998,308.041046 147.691330,307.949005 119.366028,308.019043 
	C101.782204,308.062531 87.984512,327.476288 92.629662,344.384338 
	C96.508369,358.502533 108.749710,366.910217 123.479004,366.961792 
	C157.635757,367.081360 191.793259,366.981293 225.950317,367.045715 
	C228.030457,367.049622 230.304611,367.286682 232.155853,368.138336 
	C241.390427,372.386505 250.418411,377.089783 259.696198,381.236694 
	C278.668427,389.716644 298.493317,395.026123 319.330048,395.948669 
	C326.690338,396.274506 334.089996,396.270782 341.448486,395.924927 
	C348.999817,395.569946 356.680634,395.350067 364.028076,393.777954 
	C384.414185,389.415955 403.834442,382.179901 422.774658,371.607239 
M69.506279,258.959991 
	C57.409607,277.803253 45.088825,296.510132 33.450607,315.632416 
	C31.642166,318.603821 32.043404,323.717010 33.032291,327.408630 
	C34.544621,333.054291 42.192451,337.964996 47.101997,336.798584 
	C56.323406,334.607727 59.903526,333.323212 61.991653,324.340088 
	C65.542351,309.064972 73.097282,296.521332 86.480591,287.759491 
	C91.057251,284.763214 96.368652,281.966095 99.413086,277.699829 
	C122.112183,245.890686 144.333527,213.740524 166.686737,181.684784 
	C172.046280,173.998901 177.338440,166.266022 182.661591,158.554749 
	C182.410782,158.189026 182.159988,157.823318 181.909180,157.457596 
	C178.822495,158.341064 175.593307,158.895950 172.672699,160.162430 
	C156.178314,167.314774 139.686371,174.483002 123.369171,182.025635 
	C119.852257,183.651352 116.143036,186.239441 114.074799,189.400085 
	C99.132042,212.235382 84.588402,235.331818 69.506279,258.959991 
M483.000000,311.500000 
	C483.000000,290.416565 483.000000,269.333160 483.000000,248.293503 
	C472.628510,248.293503 463.034515,248.293503 453.244812,248.293503 
	C453.244812,304.462646 453.244812,360.338165 453.244812,416.782776 
	C461.593140,412.675415 469.455109,408.626038 477.481659,404.934540 
	C481.508759,403.082458 483.191071,400.774689 483.141449,395.994232 
	C482.852570,368.165314 483.000000,340.331909 483.000000,311.500000 
M203.920425,233.337891 
	C222.585098,206.491882 241.249756,179.645889 260.220795,152.359238 
	C252.389465,146.833527 244.601151,141.338181 236.870880,135.883774 
	C203.862564,183.052353 171.174744,229.762955 138.119583,276.998474 
	C149.275162,276.998474 159.603516,277.162994 169.917526,276.852112 
	C171.853714,276.793762 174.242981,275.252808 175.534058,273.670532 
	C178.413467,270.141632 180.656158,266.101532 183.292709,262.364532 
	C189.994919,252.864960 196.770981,243.417435 203.920425,233.337891 
M69.385620,413.913849 
	C79.453033,410.247192 85.852715,402.535797 91.527405,393.971771 
	C92.914948,391.877716 92.428406,390.648102 90.566765,389.183685 
	C83.921692,383.956451 77.393822,378.580200 70.594467,373.076477 
	C66.910530,378.551605 60.921810,384.473175 58.634716,391.585144 
	C55.592552,401.044952 55.434036,411.432129 53.919418,422.259033 
	C59.247814,419.301208 63.951576,416.690125 69.385620,413.913849 
M274.948029,89.403969 
	C272.907288,87.497025 270.864899,87.131004 269.096741,89.666115 
	C264.342255,96.482918 259.653503,103.345604 254.788773,110.407616 
	C262.797089,115.970901 270.609497,121.398102 278.348663,126.774429 
	C284.032928,118.666077 289.416382,110.986816 294.843750,103.244919 
	C288.157227,98.621704 281.844116,94.256645 274.948029,89.403969 
M211.000000,404.503296 
	C211.000000,402.422485 211.000000,400.341644 211.000000,398.261078 
	C200.658279,398.261078 191.081253,398.261078 180.613998,398.261078 
	C181.128677,404.423218 181.217499,410.335876 182.216553,416.090546 
	C183.224960,421.899078 190.041122,426.890472 195.895248,426.978088 
	C201.110748,427.056152 208.647903,421.446136 209.795349,416.181152 
	C210.557831,412.682526 210.622803,409.031830 211.000000,404.503296 
M124.598824,400.922028 
	C120.626442,404.641296 120.816864,408.922882 121.826515,413.977783 
	C123.293961,421.324677 127.824486,425.526093 135.239166,426.891479 
	C140.014847,427.770935 148.343384,422.225159 149.494263,416.779449 
	C150.759064,410.794708 150.842880,404.560394 151.483017,398.007294 
	C143.018280,398.007294 135.721695,397.909576 128.433350,398.110504 
	C127.313599,398.141327 126.231750,399.547546 124.598824,400.922028 
z"/>
<path fill="none" opacity="1.000000" stroke="none" 
	d="
M1.000001,336.468658 
	C1.807047,336.630066 3.051621,337.097046 3.356338,337.914398 
	C9.088292,353.288757 20.207352,362.460236 35.875908,366.503693 
	C36.145615,366.573303 36.329845,366.974121 36.945549,367.650574 
	C27.619375,375.449524 27.716394,386.832001 26.025131,397.554077 
	C23.628675,412.746857 21.496178,427.981812 19.032772,443.163330 
	C17.192154,454.506744 19.928246,461.908752 28.554909,464.975800 
	C31.822641,466.137543 36.491337,466.422150 39.429485,464.940796 
	C56.097790,456.536743 72.432579,447.471497 88.888405,438.645325 
	C91.192406,437.409576 93.537880,436.251160 96.173813,434.898010 
	C102.022820,444.225861 109.832573,451.423370 120.302490,454.886200 
	C135.456696,459.898376 149.857056,458.417664 163.080872,448.685211 
	C164.393723,447.718994 167.777527,447.782928 169.025452,448.804199 
	C176.657288,455.049683 185.757080,457.104950 195.051468,457.867493 
	C212.751648,459.319641 232.535049,445.793182 237.994675,428.568146 
	C240.094940,421.941772 240.847122,414.888123 242.224365,407.974823 
	C301.678894,434.673950 362.047150,434.456818 423.000153,406.952820 
	C423.000153,419.364532 422.899170,431.429504 423.088226,443.489929 
	C423.124542,445.809296 423.929016,448.305115 425.019470,450.383575 
	C428.088348,456.233215 436.970795,459.924164 444.528168,456.133606 
	C464.634949,446.048676 484.831512,436.141052 504.863647,425.910828 
	C507.782532,424.420166 509.996429,421.549042 512.768311,419.658356 
	C513.000000,450.982635 513.000000,481.965302 513.000000,512.947937 
	C512.850769,512.965332 512.701599,512.997864 512.552368,512.997864 
	C342.147797,513.000000 171.743240,513.000000 1.000000,513.000000 
	C1.000000,454.312866 1.000000,395.625092 1.000001,336.468658 
z"/>
<path fill="none" opacity="1.000000" stroke="none" 
	d="
M422.484070,371.910980 
	C403.834442,382.179901 384.414185,389.415955 364.028076,393.777954 
	C356.680634,395.350067 348.999817,395.569946 341.448486,395.924927 
	C334.089996,396.270782 326.690338,396.274506 319.330048,395.948669 
	C298.493317,395.026123 278.668427,389.716644 259.696198,381.236694 
	C250.418411,377.089783 241.390427,372.386505 232.155853,368.138336 
	C230.304611,367.286682 228.030457,367.049622 225.950317,367.045715 
	C191.793259,366.981293 157.635757,367.081360 123.479004,366.961792 
	C108.749710,366.910217 96.508369,358.502533 92.629662,344.384338 
	C87.984512,327.476288 101.782204,308.062531 119.366028,308.019043 
	C147.691330,307.949005 176.016998,308.041046 204.342346,307.982880 
	C218.683548,307.953430 232.970154,307.170197 246.817734,302.987915 
	C263.166595,298.050293 278.097504,290.485626 290.741119,278.784576 
	C291.937225,277.677673 293.279846,276.720398 294.604095,275.762238 
	C300.999207,271.134888 303.368225,259.411560 299.061096,253.602905 
	C293.383118,245.945541 283.190216,244.408310 276.020660,250.548431 
	C264.474426,260.436829 252.481522,269.574982 237.375427,273.163483 
	C229.198700,275.105865 220.802917,276.126099 212.505966,277.562347 
	C212.294083,277.108246 212.082214,276.654114 211.870331,276.199982 
	C231.608963,247.990646 251.347580,219.781296 271.427490,191.084198 
	C287.767059,199.110153 304.192535,207.165741 320.606750,215.244217 
	C338.571960,224.086029 356.522980,232.956650 374.487701,241.799530 
	C383.136108,246.056595 391.981781,249.014297 401.941467,248.116165 
	C408.689758,247.507629 415.537323,248.000000 422.616730,248.000000 
	C422.767273,249.444077 422.983337,250.552094 422.983826,251.660217 
	C423.000824,290.816010 422.998993,329.971771 422.988007,369.127563 
	C422.987762,369.954163 422.848877,370.780670 422.484070,371.910980 
z"/>
<path fill="none" opacity="1.000000" stroke="none" 
	d="
M69.712296,258.652771 
	C84.588402,235.331818 99.132042,212.235382 114.074799,189.400085 
	C116.143036,186.239441 119.852257,183.651352 123.369171,182.025635 
	C139.686371,174.483002 156.178314,167.314774 172.672699,160.162430 
	C175.593307,158.895950 178.822495,158.341064 181.909180,157.457596 
	C182.159988,157.823318 182.410782,158.189026 182.661591,158.554749 
	C177.338440,166.266022 172.046280,173.998901 166.686737,181.684784 
	C144.333527,213.740524 122.112183,245.890686 99.413086,277.699829 
	C96.368652,281.966095 91.057251,284.763214 86.480591,287.759491 
	C73.097282,296.521332 65.542351,309.064972 61.991653,324.340088 
	C59.903526,333.323212 56.323406,334.607727 47.101997,336.798584 
	C42.192451,337.964996 34.544621,333.054291 33.032291,327.408630 
	C32.043404,323.717010 31.642166,318.603821 33.450607,315.632416 
	C45.088825,296.510132 57.409607,277.803253 69.712296,258.652771 
z"/>
<path fill="none" opacity="1.000000" stroke="none" 
	d="
M483.000000,312.000000 
	C483.000000,340.331909 482.852570,368.165314 483.141449,395.994232 
	C483.191071,400.774689 481.508759,403.082458 477.481659,404.934540 
	C469.455109,408.626038 461.593140,412.675415 453.244812,416.782776 
	C453.244812,360.338165 453.244812,304.462646 453.244812,248.293503 
	C463.034515,248.293503 472.628510,248.293503 483.000000,248.293503 
	C483.000000,269.333160 483.000000,290.416565 483.000000,312.000000 
z"/>
<path fill="none" opacity="1.000000" stroke="none" 
	d="
M203.718948,233.643494 
	C196.770981,243.417435 189.994919,252.864960 183.292709,262.364532 
	C180.656158,266.101532 178.413467,270.141632 175.534058,273.670532 
	C174.242981,275.252808 171.853714,276.793762 169.917526,276.852112 
	C159.603516,277.162994 149.275162,276.998474 138.119583,276.998474 
	C171.174744,229.762955 203.862564,183.052353 236.870880,135.883774 
	C244.601151,141.338181 252.389465,146.833527 260.220795,152.359238 
	C241.249756,179.645889 222.585098,206.491882 203.718948,233.643494 
z"/>
<path fill="none" opacity="1.000000" stroke="none" 
	d="
M69.020477,413.996460 
	C63.951576,416.690125 59.247814,419.301208 53.919418,422.259033 
	C55.434036,411.432129 55.592552,401.044952 58.634716,391.585144 
	C60.921810,384.473175 66.910530,378.551605 70.594467,373.076477 
	C77.393822,378.580200 83.921692,383.956451 90.566765,389.183685 
	C92.428406,390.648102 92.914948,391.877716 91.527405,393.971771 
	C85.852715,402.535797 79.453033,410.247192 69.020477,413.996460 
z"/>
<path fill="none" opacity="1.000000" stroke="none" 
	d="
M275.239502,89.647774 
	C281.844116,94.256645 288.157227,98.621704 294.843750,103.244919 
	C289.416382,110.986816 284.032928,118.666077 278.348663,126.774429 
	C270.609497,121.398102 262.797089,115.970901 254.788773,110.407616 
	C259.653503,103.345604 264.342255,96.482918 269.096741,89.666115 
	C270.864899,87.131004 272.907288,87.497025 275.239502,89.647774 
z"/>
<path fill="none" opacity="1.000000" stroke="none" 
	d="
M211.000000,404.976257 
	C210.622803,409.031830 210.557831,412.682526 209.795349,416.181152 
	C208.647903,421.446136 201.110748,427.056152 195.895248,426.978088 
	C190.041122,426.890472 183.224960,421.899078 182.216553,416.090546 
	C181.217499,410.335876 181.128677,404.423218 180.613998,398.261078 
	C191.081253,398.261078 200.658279,398.261078 211.000000,398.261078 
	C211.000000,400.341644 211.000000,402.422485 211.000000,404.976257 
z"/>
<path fill="none" opacity="1.000000" stroke="none" 
	d="
M124.865601,400.619843 
	C126.231750,399.547546 127.313599,398.141327 128.433350,398.110504 
	C135.721695,397.909576 143.018280,398.007294 151.483017,398.007294 
	C150.842880,404.560394 150.759064,410.794708 149.494263,416.779449 
	C148.343384,422.225159 140.014847,427.770935 135.239166,426.891479 
	C127.824486,425.526093 123.293961,421.324677 121.826515,413.977783 
	C120.816864,408.922882 120.626442,404.641296 124.865601,400.619843 
z"/>
</svg>